PathFileType	4	(X/Y/Z)	T1_P2_Vision_NoMovement_0_0-733.trc
DataRate	CameraRate	NumFrames	NumMarkers	Units	OrigDataRate	OrigDataStartFrame	OrigNumFrames
60	60	4	27	m	60	549	733
Frame#	Time	RHip			RKnee			RAnkle			RBigToe			RSmallToe			RHeel			LHip			LKnee			LAnkle			LBigToe			LSmallToe			LHeel			Neck			Head			Nose			RShoulder			RElbow			RWrist			RThumb			RIndex			RPinky			LShoulder			LElbow			LWrist			LThumb			LIndex			LPinky		
		X1	Y1	Z1	X2	Y2	Z2	X3	Y3	Z3	X4	Y4	Z4	X5	Y5	Z5	X6	Y6	Z6	X7	Y7	Z7	X8	Y8	Z8	X9	Y9	Z9	X10	Y10	Z10	X11	Y11	Z11	X12	Y12	Z12	X13	Y13	Z13	X14	Y14	Z14	X15	Y15	Z15	X16	Y16	Z16	X17	Y17	Z17	X18	Y18	Z18	X19	Y19	Z19	X20	Y20	Z20	X21	Y21	Z21	X22	Y22	Z22	X23	Y23	Z23	X24	Y24	Z24	X25	Y25	Z25	X26	Y26	Z26	X27	Y27	Z27
550	9.166666666666666	446.97119564037683	3740.1006185041088	645.9981767394189	847.0589702288817	3778.6006385646974	659.1173965459437	1206.0574512559554	3723.220700850202	652.3920433120165	1290.1415203078107	3644.7919224490665	649.2606663000432	1293.8833479040063	3712.946808856704	612.177229557162	1274.3032436649758	3796.510249336819	730.9241553914817	446.98859045212083	3614.8614045796603	836.3796430761658	836.6109217655608	3644.6354463101065	855.3373527038264	1228.3911456072706	3688.511081349063	866.3957607842674	1301.9419441238101	3547.6119494483028	798.1393729166537	1283.3734020258385	3538.1355194481876	844.6399006501968	1251.0909778037233	3702.2114050919104	856.1452724858754	-114.98432293194006	3620.690750795364	754.2986892165811	-362.55736299332824	3499.677921318329	743.3444544491996	-209.41068682880646	3470.147352561563	725.9096087834529	-50.583887229096234	3709.409356726869	617.8686492225238	196.69663124324626	3697.522612492336	532.6112799407498	359.84014891429507	3534.484836709646	601.8563918780659	433.2470965302615	3498.396581609854	679.6286303013673	462.91356851818676	3504.9041082622625	693.2285843253355	472.0757366762463	3441.3818864427317	610.0806688172438	-35.313122443437656	3537.6139094976816	883.8453418173666	213.5928236385646	3445.10241164506	847.599077498938	350.2184967055486	3452.0154259352707	680.8330450454669	434.31815565278805	3526.3767025039356	621.8450855432475	453.08662217697207	3502.205258369803	603.979495492343	457.6275125058996	3428.694184000863	613.0721582811263
551	9.183333333333334	444.0019674922801	3715.9614647292988	639.9870199661267	835.3278571631088	3772.170404691908	656.462123124991	1211.8526320818487	3725.0960940485875	653.9071232095897	1295.0429461264068	3645.4259946423085	650.4220219989049	1296.570764672338	3707.1891484204048	609.1838585105019	1281.3379968953407	3805.026992672438	727.972528149111	446.8497077791123	3614.4421394196174	836.1627292282934	840.0729517333874	3639.4068582346704	852.1110102162489	1228.551700758662	3688.3192799786802	866.2298165663074	1302.0825634230523	3547.364349825208	798.1113857210416	1283.6536104450101	3537.8600837544536	844.7028740606727	1251.405435957118	3702.057321648045	855.991552488024	-114.92750199044988	3620.693732263814	754.3690929899054	-363.4288572585766	3514.92985530008	757.1911880803146	-209.28804056646197	3470.2357860110915	725.953701533906	-50.48542558519512	3709.386944091539	618.0257189142143	196.84137320775628	3697.451020291497	532.5935848004009	364.1730362459757	3536.0856960838323	602.8850705368233	444.3942243259103	3513.6658956076453	688.0221245764063	463.1211286994005	3505.4754446369147	693.5461631069021	476.0342227644776	3460.208522117805	618.4793079059103	-35.30825773503495	3537.337638528747	883.8071449540143	215.49422785053162	3459.3551444011364	861.6610432455695	350.2208625331635	3452.251263151682	681.0686428157929	434.6499937145704	3508.7481562290113	607.0980343904382	452.9409303134129	3502.9228924769754	604.0627359254731	457.83312786436215	3428.8726708365584	613.1389110148086
552	9.2	444.1124597006684	3719.482992042376	635.9753585644385	840.5054183028946	3794.8332153706615	662.4240507207072	1206.156823877958	3723.1703300862214	652.4043068096283	1297.814207462173	3660.259219869945	662.4838621806665	1294.0133090457489	3713.1104099367335	612.5183648722381	1289.578882309503	3823.7814000125622	743.153746317452	446.7780393783317	3614.952766930637	836.4111027079307	840.1727919090428	3639.879828106158	852.3875393776277	1228.517965104314	3688.4953247170297	866.32642307905	1307.7276132299526	3544.4349064656712	805.2783336444568	1283.3434037516283	3537.8417406324	844.6019673847516	1258.024083463761	3706.6666286665313	857.464427930304	-114.78023501505209	3620.5882678976345	754.4211924964443	-363.44401317772457	3514.5114646330994	757.0634100329694	-209.19509562463526	3470.3030808361295	726.0372976581987	-50.5448044050363	3709.284804802055	618.0758049147304	196.7326733235874	3697.4567399364123	532.6679702302237	359.6190135936494	3535.098623701321	596.6433419897203	442.8080867585395	3507.340306120161	678.0001563119122	466.2679084517509	3525.789291361647	699.2548657694181	475.7884941555394	3460.1952708148933	618.2267264316569	-30.72318318365989	3541.1115304739606	885.6908669454375	210.4966966029541	3455.3028065386943	859.8854889878334	352.8463476265236	3465.88020434627	693.6467151158562	437.18360150699556	3529.8821866097337	612.4267641425906	455.6108749102859	3524.4009914539865	609.9326707125716	457.9714671677724	3429.2144727875484	613.2511813318617
553	9.216666666666667	449.2850438316245	3720.367245816568	641.4396809416627	846.6416982238146	3799.207447474017	663.5898854646965	1206.370210702653	3723.29340079446	652.4340076377707	1290.3499694039772	3644.771744377433	649.422177910335	1294.2162736422713	3713.072851684544	612.5245465553438	1282.2078901749064	3801.937021910018	737.1313370591948	455.57697246396083	3635.365383073807	852.4931699009815	840.1622848890732	3639.769568392725	852.2728949399564	1235.5944128160147	3692.9284583936374	867.8690214575647	1300.905083697978	3530.275626451146	792.5606162468272	1284.0684762818257	3536.3638062005743	849.8274455651316	1258.3722768101059	3706.409847473716	857.3710559006315	-114.6849137471876	3620.7131256868092	754.4562024444966	-361.90088000922873	3493.4836855325043	750.7420446401842	-209.11367643707553	3469.949401256649	725.8616468182873	-50.45441292200808	3709.0388028048737	617.9642432848121	191.7185083673325	3693.6725007436717	531.5038995692244	364.1238189207876	3535.8076692889595	602.8089635248753	440.5529604165254	3528.7179761165125	673.5279654557747	464.372574039382	3519.2271405360034	684.7365352097856	480.49088007617405	3458.7541048670882	624.0396988483323	-34.483225075983476	3553.348479808499	899.0044318772403	210.62906731996642	3455.249741444189	859.8025728583553	352.88851065881715	3465.872177212087	693.6273095658155	428.18873143744423	3528.61907646695	616.4326929122251	459.52635505485335	3526.3553685537267	615.7346566906252	461.87367517834923	3430.7064796386335	614.7055013302454
